,
.   http://www.scenetime.com/signup.php  ---&gt;  Hottest scene tracker on the net !!!  

    Join Now   http://www.scenetime.com/signup.php

    seed back for speed


 



...................................NFO:.................................................[img]http://img12.imageshack.us/img12/4964/circumstanceteripehndaf.jpg[/img]
[code]
Imdb:
http://www.imdb.com/title/tt1684628/

Plot: A wealthy Iranian family struggles to contain a teenager's growing sexual rebellion and her brother's dangerous obsession.

Source:
DVDR

Notes:
Encoded video and made it look finer than yo momma on a good day :P
Encoded by LoGiCurL

Greetz

Goes out to the people next door you know what i mean haha :D and to to the punjabi squad BRUAHHHH CHAKDEH FATEH SAREH SADEH VEER TEH PENJIYAH! :P



Format                                   : AVI
Format/Info                              : Audio Video Interleave
File size                                : 1.78 GiB
Duration                                 : 1h 46mn
Overall bit rate                         : 2 394 Kbps

Video
ID                                       : 0
Format                                   : MPEG-4 Visual
Format profile                           : Advanced Simple@L5
Format settings, BVOP                    : 2
Format settings, QPel                    : No
Format settings, GMC                     : No warppoints
Format settings, Matrix                  : Default (H.263)
Codec ID                                 : XVID
Codec ID/Hint                            : XviD
Duration                                 : 1h 46mn
Bit rate                                 : 2 000 Kbps
Width                                    : 608 pixels
Height                                   : 256 pixels
Display aspect ratio                     : 2.40:1
Frame rate                               : 23.976 fps
Color space                              : YUV
Chroma subsampling                       : 4:2:0
Bit depth                                : 8 bits
Scan type                                : Progressive
Compression mode                         : Lossy
Bits/(Pixel*Frame)                       : 0.536
Stream size                              : 1.48 GiB (84%)
Writing library                          : XviD 63

Audio
ID                                       : 1
Format                                   : AC-3
Format/Info                              : Audio Coding 3
Mode extension                           : CM (complete main)
Codec ID                                 : 2000
Duration                                 : 1h 46mn
Bit rate mode                            : Constant
Bit rate                                 : 384 Kbps
Channel(s)                               : 6 channels
Channel positions                        : Front: L C R, Side: L R, LFE
Sampling rate                            : 48.0 KHz
Bit depth                                : 16 bits
Compression mode                         : Lossy
Stream size                              : 292 MiB (16%)
Alignment                                : Aligned on interleaves
Interleave, duration                     : 32 ms (0.77 video frame)

[/code]
Screens:
[img]http://img402.imageshack.us/img402/9719/vlcsnap2011112922h05m59.png[/img]
[img]http://img190.imageshack.us/img190/493/vlcsnap2011112923h26m26.png[/img]
[img]http://img714.imageshack.us/img714/7111/vlcsnap2011112923h26m31.png[/img]
[img]http://img687.imageshack.us/img687/1618/vlcsnap2011112923h26m37.png[/img]
[img]http://img406.imageshack.us/img406/8296/vlcsnap2011112923h26m41.png[/img]
[img]http://img847.imageshack.us/img847/4412/vlcsnap2011112923h26m44.png[/img]
[img]http://img405.imageshack.us/img405/530/vlcsnap2011112923h26m49.png[/img]
[img]http://img689.imageshack.us/img689/1533/vlcsnap2011112923h26m54.png[/img]
[img]http://img191.imageshack.us/img191/3674/vlcsnap2011112923h26m59.png[/img]